# xmcd
#
# Track frame offsets:
#	150
#	14837
#	29472
#	45710
#	61750
#	74985
#	92757
#	104260
#	115157
#	129822
#	141417
#	157340
#	167567
#	180350
#	199870
#	215577
#	227327
#	246682
#
# Disc length: 3546 seconds
#
# Revision: 1
# Processed by: cddbd v1.5.2PL0 Copyright (c) Steve Scherf et al.
# Submitted via: audiograbber 1.83.01
#
DISCID=0c0dd812
DTITLE=Various Artist - Essential Country Collection, Vol. 2
DYEAR=1900
DGENRE=Country
TTITLE0=Bellamy Brothers - Let Your Love Flow
TTITLE1=Glen Campbell - Rhinestone Cowboy
TTITLE2=The Charlie Daniels Band - The Devil Went Down To Georgia
TTITLE3=Willie Nelson - Always On My Mind
TTITLE4=Tammy Wynette - D.I.V.O.R.C.E.
TTITLE5=Rita Coolidge - (Your Love Has Lifted Me) Higher And Higher
TTITLE6=Glen Campbell and Bobby Gentry - All I Have To Do Is Dream
TTITLE7=Dusty Springfield - Son Of A Preacher Man
TTITLE8=Olivia Newton John - Banks Of The Ohio
TTITLE9=Johnny Cash - I Walk The Line
TTITLE10=Marty Robbins - My Woman, My Woman, My Wife
TTITLE11=Kriss Kristofferson - Help Me Make It Through The Night
TTITLE12=Lyn Anderson - Rose Garden
TTITLE13=Kenny Rogers - Coward Of The County
TTITLE14=Joanna Field - Don't Fly Too High
TTITLE15=Barbara Ray - I Don't Wanna Play House
TTITLE16=Geraldine - The Candle
TTITLE17=Jody Wayne - Pictures Of Patches
EXTD=
EXTT0=
EXTT1=
EXTT2=
EXTT3=
EXTT4=
EXTT5=
EXTT6=
EXTT7=
EXTT8=
EXTT9=
EXTT10=
EXTT11=
EXTT12=
EXTT13=
EXTT14=
EXTT15=
EXTT16=
EXTT17=
PLAYORDER=
